<?xml version="1.0" encoding="UTF-8" standalone="no"?>
<svg
   xmlns:dc="http://purl.org/dc/elements/1.1/"
   xmlns:cc="http://creativecommons.org/ns#"
   xmlns:rdf="http://www.w3.org/1999/02/22-rdf-syntax-ns#"
   xmlns:svg="http://www.w3.org/2000/svg"
   xmlns="http://www.w3.org/2000/svg"
   xmlns:sodipodi="http://sodipodi.sourceforge.net/DTD/sodipodi-0.dtd"
   xmlns:inkscape="http://www.inkscape.org/namespaces/inkscape"
   version="1.1"
   id="Layer_1"
   x="0px"
   y="0px"
   width="161.243"
   height="113.4508"
   viewBox="0 0 161.243 113.4508"
   enable-background="new 0 0 250 114"
   xml:space="preserve"
   sodipodi:docname="P5js_Logo.svg"
   inkscape:version="1.0.2 (e86c870879, 2021-01-15)"><metadata
   id="metadata25"><rdf:RDF><cc:Work
       rdf:about=""><dc:format>image/svg+xml</dc:format><dc:type
         rdf:resource="http://purl.org/dc/dcmitype/StillImage" /><dc:title></dc:title></cc:Work></rdf:RDF></metadata><defs
   id="defs23" /><sodipodi:namedview
   pagecolor="#ffffff"
   bordercolor="#000000"
   borderopacity="0.25"
   objecttolerance="10"
   gridtolerance="10"
   guidetolerance="10"
   inkscape:pageopacity="0"
   inkscape:pageshadow="2"
   inkscape:window-width="1802"
   inkscape:window-height="946"
   id="namedview21"
   showgrid="false"
   fit-margin-top="0"
   fit-margin-left="0"
   fit-margin-right="0"
   fit-margin-bottom="0"
   inkscape:zoom="4.808"
   inkscape:cx="122.475"
   inkscape:cy="56.860799"
   inkscape:window-x="51"
   inkscape:window-y="36"
   inkscape:window-maximized="0"
   inkscape:current-layer="Layer_1" />

	<style
   id="style2">
  		path {fill:#ED225D;}
  		.svglink {border:none;}
  	</style>
<g
   id="g18"
   transform="translate(-2.525,-0.13920111)">

	<path
   d="m 16.254,27.631 v 7.998 h 0.359 c 0.715,-1.113 1.65,-2.248 2.805,-3.402 1.153,-1.154 2.567,-2.188 4.239,-3.105 1.671,-0.912 3.561,-1.67 5.671,-2.268 2.107,-0.596 4.477,-0.896 7.103,-0.896 4.06,0 7.8,0.777 11.223,2.328 3.422,1.555 6.368,3.684 8.836,6.389 2.466,2.707 4.376,5.891 5.73,9.551 1.353,3.662 2.03,7.602 2.03,11.82 0,4.218 -0.657,8.178 -1.971,11.879 -1.312,3.701 -3.185,6.924 -5.611,9.67 -2.429,2.746 -5.372,4.938 -8.835,6.566 -3.463,1.631 -7.384,2.447 -11.76,2.447 -4.06,0 -7.781,-0.836 -11.163,-2.506 -3.385,-1.672 -5.99,-3.939 -7.82,-6.807 H 16.852 V 113.59 H 2.525 V 27.631 Z m 33.43,28.414 c 0,-2.229 -0.339,-4.438 -1.015,-6.627 C 47.991,47.23 46.977,45.26 45.624,43.508 44.27,41.76 42.56,40.346 40.49,39.27 c -2.07,-1.074 -4.497,-1.611 -7.282,-1.611 -2.627,0 -4.976,0.557 -7.044,1.672 -2.07,1.115 -3.842,2.549 -5.313,4.297 -1.474,1.752 -2.587,3.742 -3.343,5.971 -0.758,2.229 -1.134,4.459 -1.134,6.686 0,2.229 0.376,4.438 1.134,6.625 0.756,2.191 1.869,4.16 3.343,5.912 1.472,1.75 3.243,3.164 5.313,4.236 2.068,1.076 4.417,1.611 7.044,1.611 2.785,0 5.212,-0.555 7.282,-1.67 2.069,-1.115 3.78,-2.547 5.134,-4.299 1.353,-1.75 2.367,-3.74 3.045,-5.969 0.676,-2.229 1.015,-4.458 1.015,-6.686 z"
   id="path4" />
	
	
	<g
   id="g12">
		<path
   d="m 153.559,9.0352011 8.533,-2.576 1.676,5.1559999 -8.498,2.898 5.275,7.48 -4.447,3.226 -5.553,-7.348 -5.408,7.154 -4.319,-3.289 5.275,-7.223 -8.563,-3.09 1.677,-5.1599999 8.599,2.771 V 0.13920111 h 5.754 V 9.0352011 Z"
   id="path10" />
	</g>
	<g
   id="g16">
		<path
   d="m 124.086,45.836 c -1.473,-3.301 -3.521,-6.088 -6.148,-8.357 -2.626,-2.268 -5.711,-4 -9.252,-5.193 -3.543,-1.193 -7.384,-1.791 -11.521,-1.791 -1.513,0 -3.204,0.082 -5.074,0.238 -1.871,0.162 -3.482,0.439 -4.835,0.838 l 0.835,-18.268 h 34.504 V 0.41 H 74.481 l -1.433,46.201 c 1.271,-0.635 2.725,-1.232 4.357,-1.791 1.631,-0.555 3.302,-1.053 5.014,-1.49 1.711,-0.438 3.463,-0.775 5.254,-1.016 1.791,-0.238 3.481,-0.357 5.074,-0.357 2.307,0 4.576,0.258 6.805,0.775 2.228,0.518 4.238,1.434 6.029,2.746 1.791,1.312 3.242,3.045 4.358,5.193 1.113,2.148 1.671,4.855 1.671,8.119 0,2.547 -0.418,4.836 -1.254,6.865 -0.835,2.027 -1.97,3.721 -3.401,5.072 -1.434,1.355 -3.104,2.389 -5.016,3.104 -1.91,0.719 -3.939,1.076 -6.089,1.076 -3.819,0 -7.124,-1.016 -9.909,-3.045 -2.787,-2.029 -4.775,-4.715 -5.97,-8.059 l -0.159,0.059 -10.368,9.715 c 2.097,3.42 4.8,6.281 8.14,8.553 4.854,3.301 10.823,4.955 17.909,4.955 4.218,0 8.197,-0.678 11.938,-2.029 3.74,-1.352 7.004,-3.303 9.79,-5.852 2.785,-2.545 4.994,-5.67 6.627,-9.371 1.63,-3.701 2.446,-7.898 2.446,-12.596 0.001,-4.298 -0.735,-8.096 -2.208,-11.401 z"
   id="path14" />
	</g>
</g>
</svg>
