<?xml version="1.0" encoding="UTF-8" standalone="no"?>
<svg
   xmlns:dc="http://purl.org/dc/elements/1.1/"
   xmlns:cc="http://creativecommons.org/ns#"
   xmlns:rdf="http://www.w3.org/1999/02/22-rdf-syntax-ns#"
   xmlns:svg="http://www.w3.org/2000/svg"
   xmlns="http://www.w3.org/2000/svg"
   xmlns:sodipodi="http://sodipodi.sourceforge.net/DTD/sodipodi-0.dtd"
   xmlns:inkscape="http://www.inkscape.org/namespaces/inkscape"
   width="117.18703"
   height="118.35934"
   viewBox="0 0 117.18703 118.35934"
   fill="none"
   version="1.1"
   id="svg18"
   sodipodi:docname="Android_Studio_icon_(2023).svg"
   inkscape:version="1.0.2 (e86c870879, 2021-01-15)">
  <metadata
     id="metadata24">
    <rdf:RDF>
      <cc:Work
         rdf:about="">
        <dc:format>image/svg+xml</dc:format>
        <dc:type
           rdf:resource="http://purl.org/dc/dcmitype/StillImage" />
        <dc:title></dc:title>
      </cc:Work>
    </rdf:RDF>
  </metadata>
  <defs
     id="defs22" />
  <sodipodi:namedview
     pagecolor="#ffffff"
     bordercolor="#000000"
     borderopacity="0.25"
     objecttolerance="10"
     gridtolerance="10"
     guidetolerance="10"
     inkscape:pageopacity="0"
     inkscape:pageshadow="2"
     inkscape:window-width="1265"
     inkscape:window-height="1017"
     id="namedview20"
     showgrid="false"
     fit-margin-top="0"
     fit-margin-left="0"
     fit-margin-right="0"
     fit-margin-bottom="0"
     inkscape:zoom="6.6640625"
     inkscape:cx="58.593747"
     inkscape:cy="100.61016"
     inkscape:window-x="51"
     inkscape:window-y="36"
     inkscape:window-maximized="0"
     inkscape:current-layer="svg18" />
  <path
     opacity="0.2"
     d="m 44.447247,118.08575 c -1.9784,-0.469 -3.6342,-1.566 -5.9514,-3.943 -3.8706,-3.971 -7.0117,-5.624 -12.4712,-6.564 -5.6635,-0.975 -8.1803,-3.08 -9.6934,-8.108 -1.8677,-6.2062 -3.8198,-9.1785 -8.1089995,-12.3465 -4.8656,-3.5939 -6.11398,-6.7631 -4.92639,-12.5063 1.09997,-5.3194 0.67876,-9.1013 -1.55522,-13.9638 -2.66544005,-5.8017 -2.33640005,-8.9018 1.44931,-13.6551 3.4706,-4.3575 4.5599,-7.2379 5.0797,-13.4316 0.5245,-6.2504 2.2634995,-8.8147 7.3848995,-10.89 4.2743,-1.7319 7.9309,-4.7385 9.9581,-8.188 2.3443,-3.9889 2.6865,-4.4462 4.139,-5.5299 2.3439,-1.7487 4.239,-2.2333 7.8482,-2.007 6.2694,0.3931 9.6297,-0.3597 13.8399,-3.10048 5.4894,-3.57359 8.8179,-3.57359 14.3074,0 4.2102,2.74078 7.5705,3.49358 13.8399,3.10048 5.9287,-0.3718 8.3957,1.1846 12.0095,7.5767 1.7909,3.1677 5.4512,6.2507 9.458203,7.9652 5.706,2.4421 7.364,4.671 7.785,10.4631 0.456,6.2729 1.742,9.7802 5.149,14.0415 3.794,4.7448 4.125,7.8478 1.457,13.6551 -2.233,4.8625 -2.655,8.6444 -1.555,13.9638 1.188,5.7432 -0.061,8.9124 -4.926,12.5063 -4.289,3.168 -6.241,6.1403 -8.109,12.3465 -1.513003,5.028 -4.030003,7.133 -9.693503,8.108 -5.4711,0.942 -8.6158,2.6 -12.4712,6.577 -4.274,4.407 -7.3379,5.135 -13.3131,3.159 -4.8871,-1.615 -8.6498,-1.622 -13.5174,-0.024 -3.4097,1.119 -5.2272,1.314 -7.4133,0.795 z"
     fill="#000000"
     id="path2" />
  <path
     d="m 44.447247,116.91475 c -1.9784,-0.47 -3.6342,-1.567 -5.9514,-3.944 -3.8706,-3.97 -7.0117,-5.624 -12.4712,-6.563 -5.6635,-0.975 -8.1803,-3.081 -9.6934,-8.108 -1.8677,-6.207 -3.8198,-9.1793 -8.1089995,-12.3474 -4.8656,-3.5939 -6.11398,-6.7631 -4.92639,-12.5062 1.09997,-5.3195 0.67876,-9.1014 -1.55522,-13.9639 -2.66544005,-5.8017 -2.33640005,-8.9018 1.44931,-13.655 3.4706,-4.3576 4.5599,-7.238 5.0797,-13.4317 0.5245,-6.2504 2.2634995,-8.8147 7.3848995,-10.8899 4.2743,-1.732 7.9309,-4.7386 9.9581,-8.1881 2.3443,-3.9889 2.6865,-4.4462 4.139,-5.5298 2.3439,-1.7488 4.239,-2.2334 7.8482,-2.0071 6.2694,0.3931 9.6297,-0.3596 13.8399,-3.10045 5.4894,-3.5736 8.8179,-3.5736 14.3074,0 4.2102,2.74085 7.5705,3.49355 13.8399,3.10045 5.9287,-0.3718 8.3957,1.1846 12.0095,7.5767 1.7909,3.1678 5.4512,6.2507 9.458203,7.9653 5.706,2.442 7.364,4.6709 7.785,10.4631 0.456,6.2728 1.742,9.7801 5.149,14.0415 3.794,4.7447 4.125,7.8477 1.457,13.655 -2.233,4.8625 -2.655,8.6444 -1.555,13.9639 1.188,5.7431 -0.061,8.9123 -4.926,12.5062 -4.289,3.1681 -6.241,6.1404 -8.109,12.3474 -1.513003,5.027 -4.030003,7.133 -9.693503,8.108 -5.4711,0.941 -8.6158,2.6 -12.4712,6.576 -4.274,4.408 -7.3379,5.135 -13.3131,3.16 -4.8871,-1.616 -8.6498,-1.623 -13.5174,-0.025 -3.4097,1.119 -5.2272,1.314 -7.4133,0.796 z"
     fill="#ffffff"
     id="path4" />
  <path
     d="m 79.598847,53.62325 c -0.369,-0.7531 -0.0527,-1.6567 0.7003,-2.0257 0.753,-0.3689 1.6566,-0.0527 2.0256,0.7003 0.369,0.7531 0.0527,1.6567 -0.7003,2.0257 -0.753,0.3689 -1.6566,0.0527 -2.0256,-0.7003 z m 7.3269,15.0603 c -0.369,-0.753 -0.0528,-1.6566 0.7003,-2.0256 0.753,-0.369 1.6566,-0.0527 2.0256,0.7003 0.369,0.753 0.0527,1.6566 -0.7003,2.0256 -0.753,0.369 -1.6567,0.0527 -2.0256,-0.7003 z m 0.64,-19.5408 c -4.8193,-3.4413 -11.107,-4.3298 -16.9278,-2.0783 l 15.9112,32.7186 c 5.3615,-3.1853 8.5396,-8.6898 8.8106,-14.601 l 6.039003,0.4292 c 0.346,0.0226 0.648,-0.2334 0.67,-0.5874 0.023,-0.3464 -0.233,-0.6476 -0.587,-0.6701 l -6.115003,-0.4368 c -0.06,-2.5753 -0.677,-5.2033 -1.9049,-7.7335 -1.2274,-2.5226 -2.9141,-4.631 -4.9021,-6.2726 l 3.4338,-5.0829 c 0.1957,-0.2861 0.1204,-0.6777 -0.1657,-0.8735 -0.2861,-0.1958 -0.6777,-0.1205 -0.8735,0.1657 l -3.3886,5.0151"
     fill="#3ddc84"
     id="path6" />
  <path
     d="m 72.897047,61.46205 c -4.488,2.1687 -9.3149,3.2681 -14.345,3.2681 -11.3329,0 -21.6267,-5.753 -27.6282,-14.9097 -0.4744,-0.7229 -1.4533,-0.8961 -2.1536,-0.3841 l -5.7757,4.2546 c -0.6551,0.4819 -0.8057,1.4006 -0.3464,2.0783 7.8841,11.7697 21.2351,19.1417 35.9039,19.1417 6.5738,0 12.8916,-1.4383 18.7727,-4.2771 z"
     fill="#4285f4"
     id="path8" />
  <path
     d="m 58.499447,25.26455 h 3.125 v -6.9052 c 0,-1.7244 -1.4006,-3.125 -3.125,-3.125 -1.7244,0 -3.1251,1.4006 -3.1251,3.125 v 6.9052 z"
     fill="#4285f4"
     id="path10" />
  <path
     d="m 50.366647,38.74365 -21.4836,44.2171 c -0.4668,0.9564 -0.7153,1.9955 -0.7379,3.0573 l -0.128,5.7907 c -0.0302,1.4985 1.7018,2.3419 2.8614,1.3931 l 4.4729,-3.6747 c 0.8208,-0.6702 1.4835,-1.5136 1.9504,-2.4699 l 21.1748,-43.5922 -8.1025,-4.7139 z"
     fill="#4285f4"
     id="path12" />
  <path
     d="m 88.860847,86.01045 c -0.0226,-1.0617 -0.2786,-2.1009 -0.7379,-3.0572 l -21.4836,-44.2172 -8.1025,4.729 21.1749,43.5771 c 0.4668,0.9563 1.1295,1.7922 1.9503,2.4699 l 4.4729,3.6747 c 1.1596,0.9488 2.8991,0.1054 2.8615,-1.3931 l -0.128,-5.7907 z"
     fill="#4285f4"
     id="path14" />
  <path
     d="m 58.499047,24.71485 c -5.1732,0 -9.375,4.2094 -9.375,9.3751 0,5.1657 4.2093,9.3751 9.375,9.3751 5.1657,0 9.3751,-4.2094 9.3751,-9.3751 0,-5.1657 -4.2094,-9.3751 -9.3751,-9.3751 z m 0,14.5333 c -2.8388,0 -5.1581,-2.3118 -5.1581,-5.1582 0,-2.8464 2.3117,-5.1582 5.1581,-5.1582 2.8464,0 5.1582,2.3118 5.1582,5.1582 0,2.8464 -2.3118,5.1582 -5.1582,5.1582 z"
     fill="#073042"
     id="path16" />
</svg>
